<svg width="620" height="170" viewBox="0 0 620 170" fill="none" xmlns="http://www.w3.org/2000/svg">
  <defs>
    <linearGradient id="fitopsBlue" x1="320" y1="40" x2="560" y2="145" gradientUnits="userSpaceOnUse">
      <stop stop-color="#2E8BE8"/>
      <stop offset="1" stop-color="#1969C9"/>
    </linearGradient>
    <linearGradient id="markNavy" x1="8" y1="6" x2="152" y2="154" gradientUnits="userSpaceOnUse">
      <stop stop-color="#2A2E46"/>
      <stop offset="1" stop-color="#1A2038"/>
    </linearGradient>
    <linearGradient id="markBlue" x1="36" y1="48" x2="152" y2="134" gradientUnits="userSpaceOnUse">
      <stop stop-color="#35A1FF"/>
      <stop offset="1" stop-color="#1D5FC8"/>
    </linearGradient>
    <linearGradient id="markGreen" x1="26" y1="95" x2="152" y2="150" gradientUnits="userSpaceOnUse">
      <stop stop-color="#9CD23E"/>
      <stop offset="1" stop-color="#59A71F"/>
    </linearGradient>
  </defs>

  <path d="M16 24H212L176 66H76V84H166L136 122H76V146L16 146V24Z" fill="url(#markNavy)"/>
  <path d="M16 146L74 88H166L136 122H74L16 146Z" fill="url(#markBlue)" opacity="0.95"/>
  <path d="M16 154L74 104L106 128L186 70L178 108L106 146L74 122L54 154H16Z" fill="url(#markGreen)"/>

  <g fill="#1E233A">
    <rect x="70" y="130" width="8" height="34" rx="3"/>
    <rect x="126" y="130" width="8" height="34" rx="3"/>
    <rect x="78" y="142" width="48" height="10" rx="4"/>
    <rect x="62" y="136" width="8" height="22" rx="3"/>
    <rect x="134" y="136" width="8" height="22" rx="3"/>
  </g>

  <text x="210" y="128" font-family="Segoe UI, Arial, sans-serif" font-size="108" font-weight="700" fill="#1F243B">Fit</text>
  <text x="390" y="128" font-family="Segoe UI, Arial, sans-serif" font-size="108" font-weight="700" fill="url(#fitopsBlue)">Ops</text>
</svg>
