<svg width="128" height="128" viewBox="0 0 128 128" fill="none" xmlns="http://www.w3.org/2000/svg">
  <defs>
    <linearGradient id="mNavy" x1="10" y1="8" x2="114" y2="118" gradientUnits="userSpaceOnUse">
      <stop stop-color="#2A2E46"/>
      <stop offset="1" stop-color="#1A2038"/>
    </linearGradient>
    <linearGradient id="mBlue" x1="16" y1="36" x2="100" y2="92" gradientUnits="userSpaceOnUse">
      <stop stop-color="#35A1FF"/>
      <stop offset="1" stop-color="#1D5FC8"/>
    </linearGradient>
    <linearGradient id="mGreen" x1="12" y1="72" x2="108" y2="118" gradientUnits="userSpaceOnUse">
      <stop stop-color="#9CD23E"/>
      <stop offset="1" stop-color="#59A71F"/>
    </linearGradient>
  </defs>

  <rect width="128" height="128" rx="22" fill="white"/>
  <path d="M12 10H108L86 36H40V50H80L62 74H40V92L12 118V10Z" fill="url(#mNavy)"/>
  <path d="M12 118L40 74H80L62 92H38L12 118Z" fill="url(#mBlue)" opacity="0.95"/>
  <path d="M12 118L38 92L56 106L96 62L92 84L56 116L38 102L28 118H12Z" fill="url(#mGreen)"/>

  <g fill="#1E233A">
    <rect x="34" y="92" width="4" height="18" rx="2"/>
    <rect x="66" y="92" width="4" height="18" rx="2"/>
    <rect x="38" y="98" width="28" height="6" rx="3"/>
    <rect x="30" y="95" width="4" height="12" rx="2"/>
    <rect x="70" y="95" width="4" height="12" rx="2"/>
  </g>
</svg>
