<svg width="640" height="420" viewBox="0 0 640 420" fill="none" xmlns="http://www.w3.org/2000/svg">
  <defs>
    <linearGradient id="bg" x1="0" y1="0" x2="640" y2="420" gradientUnits="userSpaceOnUse">
      <stop stop-color="#0D2B66"/>
      <stop offset="1" stop-color="#1E79D7"/>
    </linearGradient>
    <linearGradient id="card" x1="40" y1="60" x2="600" y2="360" gradientUnits="userSpaceOnUse">
      <stop stop-color="#FFFFFF" stop-opacity="0.18"/>
      <stop offset="1" stop-color="#FFFFFF" stop-opacity="0.05"/>
    </linearGradient>
    <linearGradient id="accent" x1="146" y1="270" x2="494" y2="270" gradientUnits="userSpaceOnUse">
      <stop stop-color="#21D67B"/>
      <stop offset="1" stop-color="#46F4A7"/>
    </linearGradient>
  </defs>

  <rect x="20" y="20" width="600" height="380" rx="28" fill="url(#bg)"/>
  <rect x="46" y="50" width="548" height="320" rx="22" fill="url(#card)"/>
  <rect x="74" y="82" width="240" height="130" rx="14" fill="#FFFFFF" fill-opacity="0.92"/>
  <rect x="92" y="104" width="118" height="14" rx="7" fill="#E1EAFF"/>
  <rect x="92" y="130" width="190" height="12" rx="6" fill="#CDDFFF"/>
  <rect x="92" y="152" width="168" height="12" rx="6" fill="#CDDFFF"/>
  <rect x="92" y="176" width="94" height="20" rx="10" fill="#2A63D4"/>

  <rect x="338" y="82" width="224" height="130" rx="14" fill="#0D1E4D" fill-opacity="0.72"/>
  <circle cx="384" cy="126" r="22" fill="#39C0FF"/>
  <rect x="420" y="112" width="104" height="12" rx="6" fill="#93B8FF"/>
  <rect x="420" y="136" width="84" height="10" rx="5" fill="#6F94D8"/>
  <rect x="420" y="158" width="120" height="10" rx="5" fill="#6F94D8"/>

  <rect x="74" y="236" width="488" height="106" rx="16" fill="#0F2D6E" fill-opacity="0.72"/>
  <rect x="96" y="270" width="210" height="16" rx="8" fill="url(#accent)"/>
  <rect x="318" y="270" width="114" height="16" rx="8" fill="#7AA5FF"/>
  <rect x="440" y="270" width="100" height="16" rx="8" fill="#7AA5FF"/>
  <rect x="96" y="298" width="444" height="10" rx="5" fill="#4A70B9"/>

  <circle cx="126" cy="329" r="10" fill="#38E4A5"/>
  <circle cx="156" cy="329" r="10" fill="#F9C94D"/>
  <circle cx="186" cy="329" r="10" fill="#FF7E7E"/>

  <text x="86" y="96" fill="#21376B" font-size="10" font-family="Arial, sans-serif">FITOPS LIVE PANEL</text>
  <text x="350" y="96" fill="#CFE3FF" font-size="10" font-family="Arial, sans-serif">MEMBER MOMENTUM</text>
</svg>
